<svg xmlns="http://www.w3.org/2000/svg" xmlns:xlink="http://www.w3.org/1999/xlink" version="1.1" x="0px" y="0px" viewBox="0 0 100 125" enable-background="new 0 0 100 100" xml:space="preserve">

<g><path id="dclogo" d="M93.434,8.665H6.566C3.497,8.665,1,11.162,1,14.231v58.764c0,3.068,2.497,5.565,5.566,5.565H36.77v9.309h-8.486   c-1.021,0-1.734,0.713-1.734,1.733c0,1.02,0.713,1.732,1.734,1.732h43.434c1.021,0,1.733-0.713,1.733-1.732   c0-1.021-0.713-1.733-1.733-1.733h-8.485v-9.309h30.202c3.069,0,5.566-2.497,5.566-5.565V14.231   C99,11.162,96.503,8.665,93.434,8.665z M59.764,78.561v9.309H40.236v-9.309H59.764z M4.468,60.676h91.064v12.319   c0,1.157-0.941,2.099-2.099,2.099H6.566c-1.157,0-2.099-0.941-2.099-2.099V60.676z M6.566,12.132h86.867   c1.157,0,2.099,0.941,2.099,2.099v42.978H4.468V14.231C4.468,13.074,5.409,12.132,6.566,12.132z"/><path d="M50,70.896c2.055,0,3.011-0.957,3.011-3.012c0-2.026-0.984-3.012-3.011-3.012c-2.025,0-3.011,0.985-3.011,3.012   C46.989,69.939,47.945,70.896,50,70.896z"/></g><text x="0" y="115" fill="#000000" font-size="5px" font-weight="bold" font-family="'Helvetica Neue', Helvetica, Arial-Unicode, Arial, Sans-serif">Created by Yorlmar Campos</text><text x="0" y="120" fill="#000000" font-size="5px" font-weight="bold" font-family="'Helvetica Neue', Helvetica, Arial-Unicode, Arial, Sans-serif">from the Noun Project</text></svg>